P3
10 10
255
21 104 219 21 104 219 21 104 219 21 104 219 21 104 219 21 104 219 21 104 219 21 104 219 21 104 219 21 104 219 21 104 219 21 104 219 21 104 219 21 104 219 21 104 219 21 104 219 21 104 219 21 104 219 21 104 219 21 104 219 21 104 219 21 104 219 21 104 219 242 174 38 242 174 38 242 174 38 21 104 219 21 104 219 21 104 219 21 104 219 21 104 219 21 104 219 242 174 38 242 174 38 242 174 38 242 174 38 242 174 38 21 104 219 242 174 38 21 104 219 21 104 219 242 174 38 229 229 229 242 174 38 242 174 38 242 174 38 242 174 38 242 174 38 242 174 38 21 104 219 21 104 219 242 174 38 242 174 38 242 174 38 242 174 38 242 174 38 242 174 38 242 174 38 242 174 38 21 104 219 21 104 219 21 104 219 242 174 38 242 174 38 242 174 38 242 174 38 242 174 38 21 104 219 242 174 38 21 104 219 21 104 219 21 104 219 21 104 219 242 174 38 242 174 38 242 174 38 21 104 219 21 104 219 21 104 219 21 104 219 21 104 219 21 104 219 21 104 219 21 104 219 21 104 219 21 104 219 21 104 219 21 104 219 21 104 219 21 104 219 21 104 219 21 104 219 21 104 219 21 104 219 21 104 219 21 104 219 21 104 219 21 104 219 21 104 219 21 104 219 