P3
64 48
255
170 207 224 170 207 224 170 207 224 170 207 224 170 207 224 170 207 224 170 207 224 170 207 224 170 207 224 170 207 224 170 207 224 170 207 224 170 207 224 170 207 224 170 207 224 170 207 224 170 207 224 170 207 224 170 207 224 170 207 224 170 207 224 170 207 224 170 207 224 170 207 224 170 207 224 170 207 224 170 207 224 170 207 224 170 207 224 170 207 224 170 207 224 170 207 224 170 207 224 170 207 224 170 207 224 170 207 224 170 207 224 170 207 224 170 207 224 170 207 224 170 207 224 170 207 224 170 207 224 170 207 224 170 207 224 170 207 224 170 207 224 170 207 224 170 207 224 170 207 224 170 207 224 170 207 224 170 207 224 170 207 224 170 207 224 170 207 224 170 207 224 170 207 224 170 207 224 170 207 224 170 207 224 170 207 224 170 207 224 170 207 224 170 207 224 170 207 224 170 207 224 170 207 224 170 207 224 170 207 224 170 207 224 170 207 224 170 207 224 170 207 224 170 207 224 170 207 224 170 207 224 170 207 224 170 207 224 170 207 224 170 207 224 170 207 224 170 207 224 170 207 224 170 207 224 170 207 224 170 207 224 170 207 224 170 207 224 170 207 224 170 207 224 170 207 224 170 207 224 170 207 224 170 207 224 170 207 224 170 207 224 170 207 224 170 207 224 170 207 224 170 207 224 170 207 224 170 207 224 170 207 224 170 207 224 170 207 224 170 207 224 170 207 224 170 207 224 170 207 224 170 207 224 170 207 224 170 207 224 170 207 224 170 207 224 170 207 224 170 207 224 170 207 224 170 207 224 170 207 224 170 207 224 170 207 224 170 207 224 170 207 224 170 207 224 170 207 224 170 207 224 170 207 224 170 207 224 170 207 224 170 207 224 170 207 224 170 207 224 170 207 224 170 207 224 170 207 224 170 207 224 170 207 224 170 207 224 170 207 224 170 207 224 170 207 224 170 207 224 170 207 224 170 207 224 170 207 224 170 207 224 170 207 224 170 207 224 170 207 224 170 207 224 170 207 224 170 207 224 170 207 224 170 207 224 170 207 224 170 207 224 170 207 224 170 207 224 170 207 224 170 207 224 170 207 224 170 207 224 170 207 224 170 207 224 170 207 224 170 207 224 170 207 224 170 207 224 170 207 224 170 207 224 170 207 224 170 207 224 170 207 224 170 207 224 170 207 224 170 207 224 170 207 224 170 207 224 170 207 224 170 207 224 170 207 224 170 207 224 170 207 224 170 207 224 170 207 224 170 207 224 170 207 224 170 207 224 170 207 224 170 207 224 170 207 224 170 207 224 170 207 224 170 207 224 170 207 224 170 207 224 170 207 224 170 207 224 170 207 224 170 207 224 170 207 224 170 207 224 170 207 224 170 207 224 170 207 224 170 207 224 170 207 224 170 207 224 170 207 224 170 207 224 170 207 224 170 207 224 170 207 224 170 207 224 170 207 224 170 207 224 170 207 224 170 207 224 170 207 224 170 207 224 170 207 224 170 207 224 170 207 224 170 207 224 170 207 224 170 207 224 170 207 224 170 207 224 170 207 224 170 207 224 170 207 224 170 207 224 170 207 224 170 207 224 170 207 224 170 207 224 170 207 224 170 207 224 170 207 224 170 207 224 170 207 224 170 207 224 170 207 224 170 207 224 170 207 224 170 207 224 170 207 224 170 207 224 170 207 224 170 207 224 170 207 224 170 207 224 170 207 224 170 207 224 170 207 224 170 207 224 170 207 224 170 207 224 170 207 224 170 207 224 170 207 224 170 207 224 170 207 224 170 207 224 170 207 224 170 207 224 170 207 224 170 207 224 170 207 224 170 207 224 170 207 224 170 207 224 170 207 224 170 207 224 170 207 224 170 207 224 170 207 224 170 207 224 170 207 224 170 207 224 170 207 224 170 207 224 170 207 224 170 207 224 170 207 224 170 207 224 170 207 224 170 207 224 170 207 224 170 207 224 170 207 224 170 207 224 170 207 224 170 207 224 170 207 224 170 207 224 170 207 224 170 207 224 170 207 224 170 207 224 170 207 224 170 207 224 170 207 224 170 207 224 170 207 224 170 207 224 170 207 224 170 207 224 170 207 224 170 207 224 170 207 224 170 207 224 170 207 224 170 207 224 170 207 224 170 207 224 170 207 224 170 207 224 170 207 224 170 207 224 170 207 224 170 207 224 170 207 224 170 207 224 170 207 224 170 207 224 170 207 224 170 207 224 170 207 224 170 207 224 170 207 224 170 207 224 170 207 224 170 207 224 170 207 224 170 207 224 170 207 224 170 207 224 170 207 224 170 207 224 170 207 224 170 207 224 170 207 224 170 207 224 170 207 224 170 207 224 170 207 224 170 207 224 170 207 224 170 207 224 170 207 224 170 207 224 170 207 224 170 207 224 170 207 224 170 207 224 170 207 224 170 207 224 170 207 224 170 207 224 170 207 224 170 207 224 170 207 224 170 207 224 170 207 224 170 207 224 170 207 224 170 207 224 170 207 224 170 207 224 170 207 224 170 207 224 170 207 224 170 207 224 170 207 224 170 207 224 170 207 224 170 207 224 170 207 224 170 207 224 170 207 224 170 207 224 170 207 224 170 207 224 170 207 224 170 207 224 170 207 224 170 207 224 170 207 224 170 207 224 170 207 224 170 207 224 170 207 224 170 207 224 170 207 224 170 207 224 170 207 224 170 207 224 170 207 224 170 207 224 170 207 224 170 207 224 170 207 224 170 207 224 170 207 224 170 207 224 170 207 224 170 207 224 170 207 224 170 207 224 170 207 224 170 207 224 170 207 224 170 207 224 170 207 224 170 207 224 170 207 224 170 207 224 170 207 224 170 207 224 170 207 224 170 207 224 170 207 224 170 207 224 170 207 224 170 207 224 170 207 224 170 207 224 170 207 224 170 207 224 170 207 224 170 207 224 170 207 224 170 207 224 170 207 224 170 207 224 170 207 224 170 207 224 170 207 224 170 207 224 170 207 224 170 207 224 170 207 224 170 207 224 170 207 224 170 207 224 170 207 224 170 207 224 170 207 224 170 207 224 170 207 224 170 207 224 170 207 224 170 207 224 170 207 224 170 207 224 170 207 224 170 207 224 170 207 224 170 207 224 170 207 224 170 207 224 170 207 224 170 207 224 170 207 224 170 207 224 170 207 224 170 207 224 170 207 224 170 207 224 170 207 224 170 207 224 170 207 224 170 207 224 170 207 224 170 207 224 170 207 224 170 207 224 170 207 224 170 207 224 170 207 224 170 207 224 170 207 224 170 207 224 170 207 224 170 207 224 170 207 224 170 207 224 170 207 224 170 207 224 170 207 224 170 207 224 170 207 224 170 207 224 170 207 224 170 207 224 170 207 224 170 207 224 170 207 224 170 207 224 170 207 224 170 207 224 170 207 224 170 207 224 170 207 224 170 207 224 170 207 224 170 207 224 170 207 224 170 207 224 170 207 224 170 207 224 170 207 224 170 207 224 170 207 224 170 207 224 170 207 224 170 207 224 170 207 224 170 207 224 170 207 224 170 207 224 170 207 224 170 207 224 170 207 224 170 207 224 170 207 224 170 207 224 170 207 224 170 207 224 170 207 224 170 207 224 170 207 224 170 207 224 170 207 224 170 207 224 170 207 224 170 207 224 170 207 224 170 207 224 170 207 224 170 207 224 170 207 224 170 207 224 170 207 224 170 207 224 170 207 224 170 207 224 170 207 224 170 207 224 170 207 224 170 207 224 170 207 224 170 207 224 170 207 224 170 207 224 170 207 224 170 207 224 170 207 224 170 207 224 170 207 224 170 207 224 170 207 224 170 207 224 170 207 224 170 207 224 170 207 224 170 207 224 170 207 224 170 207 224 170 207 224 170 207 224 170 207 224 170 207 224 170 207 224 170 207 224 170 207 224 170 207 224 170 207 224 170 207 224 170 207 224 170 207 224 170 207 224 170 207 224 170 207 224 170 207 224 170 207 224 170 207 224 170 207 224 170 207 224 170 207 224 170 207 224 170 207 224 170 207 224 170 207 224 170 207 224 170 207 224 170 207 224 170 207 224 170 207 224 170 207 224 170 207 224 170 207 224 170 207 224 170 207 224 170 207 224 170 207 224 170 207 224 170 207 224 170 207 224 170 207 224 170 207 224 170 207 224 170 207 224 170 207 224 170 207 224 170 207 224 170 207 224 170 207 224 170 207 224 170 207 224 170 207 224 170 207 224 170 207 224 170 207 224 170 207 224 170 207 224 170 207 224 170 207 224 170 207 224 170 207 224 170 207 224 170 207 224 170 207 224 170 207 224 170 207 224 170 207 224 170 207 224 170 207 224 170 207 224 170 207 224 170 207 224 170 207 224 170 207 224 170 207 224 0 0 0 170 207 224 170 207 224 170 207 224 170 207 224 170 207 224 170 207 224 170 207 224 170 207 224 170 207 224 170 207 224 170 207 224 170 207 224 170 207 224 170 207 224 170 207 224 170 207 224 170 207 224 170 207 224 170 207 224 170 207 224 170 207 224 170 207 224 170 207 224 170 207 224 170 207 224 170 207 224 170 207 224 170 207 224 170 207 224 170 207 224 170 207 224 170 207 224 170 207 224 170 207 224 170 207 224 170 207 224 170 207 224 170 207 224 170 207 224 170 207 224 170 207 224 170 207 224 170 207 224 170 207 224 170 207 224 170 207 224 170 207 224 170 207 224 170 207 224 170 207 224 170 207 224 170 207 224 170 207 224 170 207 224 170 207 224 170 207 224 170 207 224 170 207 224 170 207 224 170 207 224 170 207 224 170 207 224 170 207 224 170 207 224 170 207 224 170 207 224 170 207 224 170 207 224 170 207 224 170 207 224 170 207 224 170 207 224 170 207 224 170 207 224 170 207 224 170 207 224 170 207 224 170 207 224 170 207 224 170 207 224 170 207 224 170 207 224 170 207 224 170 207 224 170 207 224 170 207 224 170 207 224 170 207 224 170 207 224 170 207 224 170 207 224 170 207 224 170 207 224 170 207 224 170 207 224 170 207 224 170 207 224 170 207 224 170 207 224 170 207 224 170 207 224 170 207 224 170 207 224 170 207 224 170 207 224 170 207 224 170 207 224 170 207 224 170 207 224 170 207 224 170 207 224 170 207 224 170 207 224 170 207 224 170 207 224 170 207 224 170 207 224 170 207 224 170 207 224 170 207 224 170 207 224 170 207 224 170 207 224 170 207 224 170 207 224 170 207 224 170 207 224 170 207 224 170 207 224 170 207 224 170 207 224 170 207 224 170 207 224 170 207 224 170 207 224 170 207 224 170 207 224 170 207 224 170 207 224 170 207 224 170 207 224 170 207 224 170 207 224 170 207 224 170 207 224 170 207 224 170 207 224 170 207 224 170 207 224 170 207 224 170 207 224 170 207 224 170 207 224 170 207 224 170 207 224 170 207 224 170 207 224 170 207 224 170 207 224 170 207 224 170 207 224 170 207 224 170 207 224 170 207 224 170 207 224 170 207 224 170 207 224 170 207 224 170 207 224 170 207 224 170 207 224 170 207 224 170 207 224 170 207 224 170 207 224 170 207 224 170 207 224 170 207 224 170 207 224 170 207 224 170 207 224 170 207 224 170 207 224 170 207 224 170 207 224 170 207 224 170 207 224 170 207 224 170 207 224 170 207 224 170 207 224 170 207 224 170 207 224 170 207 224 170 207 224 170 207 224 170 207 224 170 207 224 170 207 224 170 207 224 170 207 224 170 207 224 170 207 224 170 207 224 170 207 224 170 207 224 170 207 224 170 207 224 170 207 224 170 207 224 170 207 224 170 207 224 170 207 224 170 207 224 170 207 224 170 207 224 170 207 224 170 207 224 170 207 224 170 207 224 170 207 224 170 207 224 170 207 224 170 207 224 170 207 224 170 207 224 170 207 224 170 207 224 170 207 224 170 207 224 170 207 224 170 207 224 170 207 224 170 207 224 170 207 224 170 207 224 170 207 224 170 207 224 170 207 224 170 207 224 170 207 224 170 207 224 170 207 224 170 207 224 170 207 224 170 207 224 170 207 224 170 207 224 170 207 224 170 207 224 170 207 224 170 207 224 170 207 224 170 207 224 170 207 224 170 207 224 170 207 224 170 207 224 170 207 224 170 207 224 170 207 224 170 207 224 170 207 224 170 207 224 170 207 224 170 207 224 170 207 224 170 207 224 170 207 224 170 207 224 170 207 224 170 207 224 170 207 224 170 207 224 170 207 224 170 207 224 170 207 224 170 207 224 170 207 224 170 207 224 170 207 224 170 207 224 170 207 224 170 207 224 170 207 224 170 207 224 170 207 224 170 207 224 170 207 224 170 207 224 170 207 224 170 207 224 170 207 224 170 207 224 170 207 224 170 207 224 170 207 224 170 207 224 170 207 224 170 207 224 170 207 224 170 207 224 170 207 224 170 207 224 170 207 224 170 207 224 170 207 224 170 207 224 170 207 224 170 207 224 170 207 224 170 207 224 170 207 224 170 207 224 170 207 224 170 207 224 170 207 224 170 207 224 170 207 224 170 207 224 170 207 224 170 207 224 170 207 224 170 207 224 170 207 224 170 207 224 170 207 224 170 207 224 170 207 224 170 207 224 170 207 224 170 207 224 170 207 224 170 207 224 170 207 224 170 207 224 170 207 224 170 207 224 170 207 224 170 207 224 170 207 224 170 207 224 170 207 224 170 207 224 170 207 224 170 207 224 170 207 224 170 207 224 170 207 224 170 207 224 170 207 224 170 207 224 170 207 224 170 207 224 170 207 224 170 207 224 170 207 224 170 207 224 170 207 224 170 207 224 170 207 224 170 207 224 170 207 224 170 207 224 170 207 224 170 207 224 170 207 224 170 207 224 170 207 224 170 207 224 170 207 224 170 207 224 170 207 224 170 207 224 170 207 224 170 207 224 170 207 224 170 207 224 170 207 224 170 207 224 170 207 224 170 207 224 170 207 224 170 207 224 170 207 224 170 207 224 170 207 224 170 207 224 170 207 224 170 207 224 170 207 224 170 207 224 170 207 224 170 207 224 170 207 224 170 207 224 170 207 224 170 207 224 170 207 224 170 207 224 170 207 224 170 207 224 170 207 224 170 207 224 170 207 224 170 207 224 170 207 224 170 207 224 170 207 224 170 207 224 170 207 224 170 207 224 170 207 224 170 207 224 170 207 224 170 207 224 170 207 224 170 207 224 170 207 224 170 207 224 170 207 224 170 207 224 170 207 224 170 207 224 170 207 224 170 207 224 170 207 224 170 207 224 170 207 224 170 207 224 170 207 224 170 207 224 170 207 224 170 207 224 170 207 224 170 207 224 170 207 224 170 207 224 170 207 224 170 207 224 170 207 224 170 207 224 170 207 224 170 207 224 170 207 224 170 207 224 170 207 224 170 207 224 170 207 224 170 207 224 170 207 224 170 207 224 170 207 224 170 207 224 170 207 224 170 207 224 170 207 224 170 207 224 170 207 224 170 207 224 170 207 224 170 207 224 170 207 224 170 207 224 170 207 224 170 207 224 170 207 224 170 207 224 170 207 224 170 207 224 170 207 224 170 207 224 170 207 224 170 207 224 170 207 224 170 207 224 170 207 224 170 207 224 170 207 224 170 207 224 170 207 224 170 207 224 170 207 224 170 207 224 170 207 224 170 207 224 170 207 224 170 207 224 170 207 224 170 207 224 170 207 224 170 207 224 170 207 224 170 207 224 170 207 224 170 207 224 170 207 224 170 207 224 170 207 224 170 207 224 170 207 224 170 207 224 170 207 224 170 207 224 170 207 224 170 207 224 170 207 224 170 207 224 170 207 224 170 207 224 170 207 224 170 207 224 170 207 224 170 207 224 170 207 224 170 207 224 170 207 224 170 207 224 170 207 224 170 207 224 170 207 224 170 207 224 170 207 224 170 207 224 170 207 224 170 207 224 170 207 224 170 207 224 170 207 224 170 207 224 170 207 224 170 207 224 170 207 224 170 207 224 170 207 224 170 207 224 170 207 224 170 207 224 170 207 224 170 207 224 170 207 224 170 207 224 170 207 224 170 207 224 170 207 224 170 207 224 170 207 224 170 207 224 170 207 224 170 207 224 170 207 224 170 207 224 170 207 224 170 207 224 170 207 224 170 207 224 170 207 224 170 207 224 170 207 224 170 207 224 170 207 224 170 207 224 170 207 224 170 207 224 170 207 224 170 207 224 170 207 224 170 207 224 170 207 224 170 207 224 170 207 224 170 207 224 170 207 224 170 207 224 170 207 224 170 207 224 170 207 224 170 207 224 170 207 224 170 207 224 170 207 224 170 207 224 170 207 224 170 207 224 170 207 224 170 207 224 170 207 224 170 207 224 170 207 224 170 207 224 170 207 224 170 207 224 170 207 224 170 207 224 170 207 224 170 207 224 170 207 224 170 207 224 170 207 224 170 207 224 170 207 224 170 207 224 170 207 224 170 207 224 170 207 224 170 207 224 170 207 224 170 207 224 170 207 224 170 207 224 170 207 224 170 207 224 170 207 224 170 207 224 170 207 224 170 207 224 170 207 224 170 207 224 170 207 224 170 207 224 170 207 224 170 207 224 170 207 224 170 207 224 170 207 224 170 207 224 170 207 224 170 207 224 170 207 224 170 207 224 170 207 224 170 207 224 170 207 224 170 207 224 170 207 224 170 207 224 170 207 224 170 207 224 170 207 224 170 207 224 170 207 224 170 207 224 170 207 224 170 207 224 170 207 224 170 207 224 170 207 224 170 207 224 170 207 224 170 207 224 170 207 224 170 207 224 170 207 224 170 207 224 170 207 224 170 207 224 170 207 224 170 207 224 170 207 224 170 207 224 170 207 224 170 207 224 170 207 224 170 207 224 170 207 224 170 207 224 170 207 224 170 207 224 170 207 224 170 207 224 170 207 224 170 207 224 170 207 224 170 207 224 170 207 224 170 207 224 170 207 224 170 207 224 170 207 224 170 207 224 170 207 224 170 207 224 170 207 224 170 207 224 170 207 224 170 207 224 170 207 224 170 207 224 170 207 224 170 207 224 170 207 224 170 207 224 170 207 224 170 207 224 170 207 224 170 207 224 170 207 224 170 207 224 170 207 224 170 207 224 170 207 224 170 207 224 170 207 224 170 207 224 170 207 224 170 207 224 170 207 224 170 207 224 170 207 224 170 207 224 170 207 224 170 207 224 170 207 224 170 207 224 170 207 224 170 207 224 170 207 224 170 207 224 170 207 224 170 207 224 170 207 224 170 207 224 170 207 224 170 207 224 170 207 224 170 207 224 170 207 224 170 207 224 170 207 224 170 207 224 170 207 224 170 207 224 170 207 224 170 207 224 170 207 224 170 207 224 170 207 224 170 207 224 170 207 224 170 207 224 170 207 224 170 207 224 170 207 224 170 207 224 170 207 224 170 207 224 170 207 224 170 207 224 170 207 224 170 207 224 170 207 224 170 207 224 170 207 224 170 207 224 170 207 224 170 207 224 170 207 224 170 207 224 170 207 224 170 207 224 170 207 224 170 207 224 170 207 224 170 207 224 170 207 224 170 207 224 170 207 224 170 207 224 170 207 224 170 207 224 170 207 224 170 207 224 170 207 224 170 207 224 170 207 224 170 207 224 170 207 224 170 207 224 170 207 224 170 207 224 170 207 224 170 207 224 170 207 224 170 207 224 170 207 224 170 207 224 170 207 224 170 207 224 170 207 224 170 207 224 170 207 224 170 207 224 170 207 224 170 207 224 170 207 224 170 207 224 170 207 224 170 207 224 170 207 224 170 207 224 170 207 224 170 207 224 170 207 224 170 207 224 170 207 224 170 207 224 170 207 224 170 207 224 170 207 224 170 207 224 170 207 224 170 207 224 170 207 224 170 207 224 170 207 224 170 207 224 170 207 224 170 207 224 170 207 224 170 207 224 170 207 224 170 207 224 170 207 224 170 207 224 170 207 224 170 207 224 170 207 224 170 207 224 170 207 224 170 207 224 170 207 224 170 207 224 170 207 224 170 207 224 170 207 224 170 207 224 170 207 224 170 207 224 170 207 224 170 207 224 170 207 224 170 207 224 170 207 224 170 207 224 170 207 224 170 207 224 170 207 224 170 207 224 170 207 224 170 207 224 170 207 224 170 207 224 170 207 224 170 207 224 170 207 224 170 207 224 170 207 224 170 207 224 170 207 224 170 207 224 170 207 224 170 207 224 170 207 224 170 207 224 170 207 224 170 207 224 170 207 224 170 207 224 170 207 224 170 207 224 170 207 224 170 207 224 170 207 224 170 207 224 170 207 224 170 207 224 170 207 224 170 207 224 170 207 224 170 207 224 170 207 224 170 207 224 170 207 224 170 207 224 170 207 224 170 207 224 170 207 224 170 207 224 170 207 224 170 207 224 170 207 224 170 207 224 170 207 224 170 207 224 170 207 224 170 207 224 170 207 224 170 207 224 170 207 224 170 207 224 170 207 224 170 207 224 170 207 224 170 207 224 170 207 224 170 207 224 170 207 224 170 207 224 170 207 224 170 207 224 170 207 224 170 207 224 170 207 224 170 207 224 170 207 224 170 207 224 170 207 224 170 207 224 170 207 224 170 207 224 170 207 224 241 47 4 241 47 4 241 47 4 241 47 4 241 47 4 241 47 4 241 47 4 241 47 4 241 47 4 241 47 4 241 47 4 241 47 4 241 47 4 241 47 4 241 47 4 170 207 224 170 207 224 170 207 224 170 207 224 170 207 224 170 207 224 170 207 224 170 207 224 170 207 224 170 207 224 170 207 224 170 207 224 170 207 224 170 207 224 170 207 224 170 207 224 170 207 224 170 207 224 170 207 224 170 207 224 170 207 224 170 207 224 170 207 224 170 207 224 170 207 224 170 207 224 170 207 224 170 207 224 170 207 224 170 207 224 170 207 224 170 207 224 170 207 224 170 207 224 170 207 224 170 207 224 170 207 224 170 207 224 170 207 224 170 207 224 170 207 224 170 207 224 170 207 224 170 207 224 170 207 224 170 207 224 170 207 224 170 207 224 170 207 224 241 47 4 241 47 4 241 47 4 241 47 4 241 47 4 241 47 4 241 47 4 241 47 4 241 47 4 241 47 4 241 47 4 241 47 4 241 47 4 241 47 4 241 47 4 170 207 224 170 207 224 170 207 224 170 207 224 170 207 224 170 207 224 170 207 224 170 207 224 170 207 224 170 207 224 170 207 224 170 207 224 170 207 224 170 207 224 170 207 224 170 207 224 170 207 224 170 207 224 170 207 224 170 207 224 170 207 224 170 207 224 170 207 224 170 207 224 170 207 224 170 207 224 170 207 224 170 207 224 170 207 224 170 207 224 170 207 224 170 207 224 170 207 224 170 207 224 170 207 224 170 207 224 170 207 224 170 207 224 170 207 224 170 207 224 170 207 224 170 207 224 170 207 224 170 207 224 170 207 224 170 207 224 170 207 224 170 207 224 170 207 224 241 47 4 241 47 4 241 47 4 241 47 4 241 47 4 241 47 4 241 47 4 241 47 4 241 47 4 241 47 4 241 47 4 241 47 4 241 47 4 241 47 4 241 47 4 170 207 224 170 207 224 170 207 224 170 207 224 170 207 224 170 207 224 170 207 224 170 207 224 170 207 224 170 207 224 170 207 224 170 207 224 170 207 224 170 207 224 170 207 224 170 207 224 170 207 224 170 207 224 170 207 224 170 207 224 170 207 224 170 207 224 170 207 224 170 207 224 170 207 224 170 207 224 170 207 224 170 207 224 170 207 224 170 207 224 170 207 224 170 207 224 170 207 224 170 207 224 170 207 224 170 207 224 170 207 224 170 207 224 170 207 224 170 207 224 170 207 224 170 207 224 170 207 224 170 207 224 170 207 224 170 207 224 170 207 224 170 207 224 170 207 224 241 47 4 241 47 4 241 47 4 241 47 4 241 47 4 241 47 4 241 47 4 241 47 4 241 47 4 241 47 4 241 47 4 241 47 4 241 47 4 241 47 4 241 47 4 170 207 224 170 207 224 170 207 224 170 207 224 170 207 224 170 207 224 170 207 224 170 207 224 170 207 224 170 207 224 170 207 224 170 207 224 170 207 224 170 207 224 170 207 224 170 207 224 170 207 224 170 207 224 170 207 224 170 207 224 170 207 224 170 207 224 170 207 224 170 207 224 170 207 224 170 207 224 170 207 224 170 207 224 170 207 224 170 207 224 170 207 224 170 207 224 170 207 224 170 207 224 170 207 224 170 207 224 170 207 224 170 207 224 170 207 224 170 207 224 170 207 224 170 207 224 170 207 224 170 207 224 170 207 224 170 207 224 170 207 224 170 207 224 170 207 224 241 47 4 241 47 4 241 47 4 241 47 4 241 47 4 241 47 4 241 47 4 241 47 4 241 47 4 241 47 4 241 47 4 241 47 4 241 47 4 241 47 4 241 47 4 170 207 224 170 207 224 170 207 224 170 207 224 170 207 224 170 207 224 170 207 224 170 207 224 170 207 224 170 207 224 170 207 224 170 207 224 170 207 224 170 207 224 170 207 224 170 207 224 170 207 224 170 207 224 170 207 224 170 207 224 170 207 224 170 207 224 170 207 224 170 207 224 170 207 224 170 207 224 170 207 224 170 207 224 170 207 224 170 207 224 170 207 224 170 207 224 170 207 224 170 207 224 170 207 224 170 207 224 170 207 224 170 207 224 170 207 224 170 207 224 170 207 224 170 207 224 170 207 224 170 207 224 170 207 224 170 207 224 170 207 224 170 207 224 170 207 224 241 47 4 241 47 4 241 47 4 241 47 4 241 47 4 241 47 4 241 47 4 241 47 4 241 47 4 241 47 4 241 47 4 241 47 4 241 47 4 241 47 4 241 47 4 170 207 224 170 207 224 170 207 224 170 207 224 170 207 224 170 207 224 170 207 224 170 207 224 170 207 224 170 207 224 170 207 224 170 207 224 170 207 224 170 207 224 170 207 224 170 207 224 170 207 224 170 207 224 170 207 224 170 207 224 170 207 224 170 207 224 170 207 224 170 207 224 170 207 224 170 207 224 170 207 224 170 207 224 170 207 224 170 207 224 170 207 224 170 207 224 170 207 224 170 207 224 170 207 224 170 207 224 170 207 224 170 207 224 170 207 224 170 207 224 170 207 224 170 207 224 170 207 224 170 207 224 170 207 224 170 207 224 170 207 224 170 207 224 170 207 224 241 47 4 241 47 4 241 47 4 241 47 4 241 47 4 241 47 4 241 47 4 241 47 4 241 47 4 23 232 37 241 47 4 241 47 4 241 47 4 241 47 4 241 47 4 170 207 224 170 207 224 170 207 224 170 207 224 170 207 224 170 207 224 170 207 224 170 207 224 170 207 224 170 207 224 170 207 224 170 207 224 170 207 224 170 207 224 170 207 224 170 207 224 170 207 224 170 207 224 170 207 224 170 207 224 170 207 224 170 207 224 170 207 224 170 207 224 170 207 224 170 207 224 170 207 224 170 207 224 170 207 224 170 207 224 170 207 224 170 207 224 170 207 224 170 207 224 170 207 224 170 207 224 170 207 224 170 207 224 170 207 224 170 207 224 170 207 224 170 207 224 170 207 224 170 207 224 170 207 224 170 207 224 170 207 224 170 207 224 170 207 224 241 47 4 241 47 4 241 47 4 241 47 4 241 47 4 241 47 4 241 47 4 241 47 4 241 47 4 241 47 4 241 47 4 241 47 4 241 47 4 241 47 4 241 47 4 170 207 224 170 207 224 170 207 224 170 207 224 170 207 224 170 207 224 170 207 224 170 207 224 170 207 224 170 207 224 170 207 224 170 207 224 170 207 224 170 207 224 170 207 224 170 207 224 170 207 224 170 207 224 170 207 224 170 207 224 170 207 224 170 207 224 170 207 224 170 207 224 170 207 224 170 207 224 170 207 224 170 207 224 170 207 224 170 207 224 170 207 224 170 207 224 170 207 224 170 207 224 170 207 224 170 207 224 170 207 224 170 207 224 170 207 224 170 207 224 170 207 224 170 207 224 170 207 224 170 207 224 170 207 224 170 207 224 170 207 224 170 207 224 170 207 224 241 47 4 241 47 4 241 47 4 241 47 4 241 47 4 241 47 4 241 47 4 241 47 4 241 47 4 241 47 4 241 47 4 241 47 4 241 47 4 241 47 4 241 47 4 170 207 224 170 207 224 170 207 224 170 207 224 170 207 224 170 207 224 170 207 224 170 207 224 170 207 224 170 207 224 170 207 224 170 207 224 170 207 224 170 207 224 170 207 224 170 207 224 170 207 224 170 207 224 170 207 224 170 207 224 170 207 224 170 207 224 170 207 224 170 207 224 170 207 224 170 207 224 170 207 224 170 207 224 170 207 224 170 207 224 170 207 224 170 207 224 170 207 224 170 207 224 170 207 224 170 207 224 170 207 224 170 207 224 170 207 224 170 207 224 170 207 224 170 207 224 170 207 224 170 207 224 170 207 224 170 207 224 170 207 224 170 207 224 170 207 224 241 47 4 241 47 4 241 47 4 241 47 4 241 47 4 241 47 4 241 47 4 241 47 4 241 47 4 241 47 4 241 47 4 241 47 4 241 47 4 241 47 4 241 47 4 170 207 224 170 207 224 170 207 224 170 207 224 170 207 224 170 207 224 170 207 224 170 207 224 170 207 224 170 207 224 170 207 224 170 207 224 170 207 224 170 207 224 170 207 224 170 207 224 170 207 224 170 207 224 170 207 224 170 207 224 170 207 224 170 207 224 170 207 224 170 207 224 170 207 224 170 207 224 170 207 224 170 207 224 170 207 224 170 207 224 170 207 224 170 207 224 170 207 224 170 207 224 170 207 224 170 207 224 170 207 224 170 207 224 170 207 224 170 207 224 170 207 224 170 207 224 170 207 224 170 207 224 170 207 224 170 207 224 170 207 224 170 207 224 170 207 224 241 47 4 241 47 4 241 47 4 241 47 4 241 47 4 241 47 4 241 47 4 241 47 4 241 47 4 241 47 4 241 47 4 241 47 4 241 47 4 241 47 4 241 47 4 170 207 224 170 207 224 170 207 224 170 207 224 170 207 224 170 207 224 170 207 224 170 207 224 170 207 224 170 207 224 170 207 224 170 207 224 170 207 224 170 207 224 170 207 224 170 207 224 170 207 224 170 207 224 170 207 224 170 207 224 170 207 224 170 207 224 170 207 224 170 207 224 170 207 224 170 207 224 170 207 224 170 207 224 170 207 224 170 207 224 170 207 224 170 207 224 170 207 224 170 207 224 170 207 224 170 207 224 170 207 224 170 207 224 170 207 224 170 207 224 170 207 224 170 207 224 170 207 224 170 207 224 170 207 224 170 207 224 170 207 224 170 207 224 170 207 224 241 47 4 241 47 4 241 47 4 241 47 4 241 47 4 241 47 4 241 47 4 241 47 4 241 47 4 241 47 4 241 47 4 241 47 4 241 47 4 241 47 4 241 47 4 170 207 224 170 207 224 170 207 224 170 207 224 170 207 224 170 207 224 170 207 224 170 207 224 170 207 224 170 207 224 170 207 224 170 207 224 170 207 224 170 207 224 170 207 224 170 207 224 170 207 224 170 207 224 170 207 224 170 207 224 170 207 224 170 207 224 170 207 224 170 207 224 170 207 224 170 207 224 170 207 224 170 207 224 170 207 224 170 207 224 170 207 224 170 207 224 170 207 224 170 207 224 170 207 224 170 207 224 170 207 224 170 207 224 170 207 224 170 207 224 170 207 224 170 207 224 170 207 224 170 207 224 170 207 224 170 207 224 170 207 224 170 207 224 170 207 224 170 207 224 170 207 224 170 207 224 170 207 224 170 207 224 170 207 224 170 207 224 170 207 224 170 207 224 170 207 224 170 207 224 170 207 224 170 207 224 170 207 224 170 207 224 170 207 224 170 207 224 170 207 224 170 207 224 170 207 224 170 207 224 170 207 224 170 207 224 170 207 224 170 207 224 170 207 224 170 207 224 170 207 224 170 207 224 170 207 224 170 207 224 170 207 224 170 207 224 170 207 224 170 207 224 170 207 224 170 207 224 170 207 224 170 207 224 170 207 224 170 207 224 170 207 224 170 207 224 170 207 224 170 207 224 170 207 224 170 207 224 170 207 224 170 207 224 170 207 224 170 207 224 170 207 224 170 207 224 170 207 224 170 207 224 170 207 224 170 207 224 170 207 224 170 207 224 170 207 224 170 207 224 170 207 224 170 207 224 170 207 224 170 207 224 170 207 224 170 207 224 170 207 224 170 207 224 170 207 224 170 207 224 170 207 224 170 207 224 170 207 224 170 207 224 170 207 224 170 207 224 170 207 224 170 207 224 170 207 224 170 207 224 170 207 224 170 207 224 170 207 224 170 207 224 170 207 224 170 207 224 170 207 224 170 207 224 170 207 224 170 207 224 170 207 224 170 207 224 170 207 224 170 207 224 170 207 224 170 207 224 170 207 224 170 207 224 170 207 224 170 207 224 170 207 224 170 207 224 170 207 224 170 207 224 170 207 224 170 207 224 170 207 224 170 207 224 170 207 224 170 207 224 170 207 224 170 207 224 170 207 224 170 207 224 170 207 224 170 207 224 170 207 224 170 207 224 170 207 224 170 207 224 170 207 224 170 207 224 170 207 224 170 207 224 170 207 224 170 207 224 170 207 224 170 207 224 170 207 224 170 207 224 170 207 224 170 207 224 170 207 224 170 207 224 170 207 224 170 207 224 170 207 224 170 207 224 170 207 224 170 207 224 170 207 224 170 207 224 170 207 224 170 207 224 170 207 224 170 207 224 170 207 224 170 207 224 170 207 224 170 207 224 170 207 224 170 207 224 170 207 224 170 207 224 170 207 224 170 207 224 170 207 224 170 207 224 170 207 224 170 207 224 170 207 224 170 207 224 170 207 224 170 207 224 170 207 224 170 207 224 170 207 224 170 207 224 170 207 224 170 207 224 170 207 224 170 207 224 170 207 224 170 207 224 170 207 224 170 207 224 170 207 224 170 207 224 170 207 224 170 207 224 170 207 224 170 207 224 170 207 224 170 207 224 170 207 224 170 207 224 170 207 224 170 207 224 170 207 224 170 207 224 170 207 224 170 207 224 170 207 224 170 207 224 170 207 224 170 207 224 170 207 224 170 207 224 170 207 224 170 207 224 170 207 224 170 207 224 170 207 224 170 207 224 170 207 224 170 207 224 170 207 224 170 207 224 170 207 224 170 207 224 170 207 224 170 207 224 170 207 224 170 207 224 170 207 224 170 207 224 170 207 224 170 207 224 170 207 224 170 207 224 170 207 224 170 207 224 170 207 224 170 207 224 170 207 224 170 207 224 170 207 224 170 207 224 170 207 224 170 207 224 170 207 224 170 207 224 170 207 224 170 207 224 170 207 224 170 207 224 170 207 224 170 207 224 170 207 224 170 207 224 170 207 224 170 207 224 170 207 224 170 207 224 170 207 224 170 207 224 170 207 224 170 207 224 170 207 224 170 207 224 170 207 224 170 207 224 170 207 224 170 207 224 170 207 224 170 207 224 170 207 224 170 207 224 170 207 224 170 207 224 170 207 224 170 207 224 170 207 224 170 207 224 170 207 224 170 207 224 170 207 224 170 207 224 170 207 224 170 207 224 170 207 224 170 207 224 170 207 224 170 207 224 170 207 224 170 207 224 170 207 224 170 207 224 170 207 224 170 207 224 170 207 224 170 207 224 170 207 224 170 207 224 170 207 224 170 207 224 170 207 224 170 207 224 170 207 224 170 207 224 170 207 224 170 207 224 170 207 224 170 207 224 170 207 224 170 207 224 170 207 224 170 207 224 170 207 224 170 207 224 170 207 224 170 207 224 170 207 224 170 207 224 170 207 224 170 207 224 170 207 224 170 207 224 170 207 224 170 207 224 170 207 224 170 207 224 170 207 224 170 207 224 170 207 224 170 207 224 170 207 224 170 207 224 170 207 224 170 207 224 170 207 224 170 207 224 170 207 224 170 207 224 170 207 224 170 207 224 170 207 224 170 207 224 170 207 224 170 207 224 170 207 224 170 207 224 170 207 224 170 207 224 170 207 224 170 207 224 170 207 224 170 207 224 170 207 224 170 207 224 170 207 224 170 207 224 170 207 224 170 207 224 170 207 224 170 207 224 170 207 224 170 207 224 170 207 224 170 207 224 170 207 224 170 207 224 170 207 224 170 207 224 170 207 224 170 207 224 170 207 224 170 207 224 170 207 224 170 207 224 170 207 224 170 207 224 170 207 224 170 207 224 170 207 224 170 207 224 170 207 224 170 207 224 170 207 224 170 207 224 170 207 224 170 207 224 170 207 224 170 207 224 170 207 224 170 207 224 170 207 224 170 207 224 170 207 224 170 207 224 170 207 224 170 207 224 170 207 224 170 207 224 170 207 224 170 207 224 170 207 224 170 207 224 170 207 224 170 207 224 170 207 224 170 207 224 170 207 224 170 207 224 170 207 224 170 207 224 170 207 224 170 207 224 170 207 224 170 207 224 170 207 224 170 207 224 170 207 224 170 207 224 170 207 224 170 207 224 170 207 224 170 207 224 170 207 224 170 207 224 170 207 224 170 207 224 170 207 224 170 207 224 170 207 224 170 207 224 170 207 224 170 207 224 170 207 224 170 207 224 170 207 224 170 207 224 170 207 224 170 207 224 170 207 224 170 207 224 170 207 224 170 207 224 170 207 224 170 207 224 170 207 224 170 207 224 170 207 224 170 207 224 170 207 224 170 207 224 170 207 224 170 207 224 170 207 224 170 207 224 170 207 224 170 207 224 170 207 224 170 207 224 170 207 224 170 207 224 170 207 224 170 207 224 170 207 224 170 207 224 170 207 224 170 207 224 170 207 224 170 207 224 170 207 224 170 207 224 170 207 224 170 207 224 170 207 224 170 207 224 170 207 224 170 207 224 170 207 224 170 207 224 170 207 224 170 207 224 170 207 224 170 207 224 170 207 224 170 207 224 170 207 224 170 207 224 170 207 224 170 207 224 170 207 224 170 207 224 170 207 224 170 207 224 170 207 224 170 207 224 170 207 224 170 207 224 170 207 224 170 207 224 170 207 224 170 207 224 170 207 224 170 207 224 170 207 224 170 207 224 170 207 224 170 207 224 170 207 224 170 207 224 170 207 224 170 207 224 170 207 224 170 207 224 170 207 224 170 207 224 170 207 224 170 207 224 170 207 224 170 207 224 170 207 224 170 207 224 170 207 224 170 207 224 170 207 224 170 207 224 170 207 224 170 207 224 170 207 224 170 207 224 170 207 224 170 207 224 170 207 224 170 207 224 170 207 224 170 207 224 170 207 224 170 207 224 170 207 224 170 207 224 170 207 224 170 207 224 170 207 224 170 207 224 170 207 224 170 207 224 170 207 224 170 207 224 170 207 224 170 207 224 170 207 224 170 207 224 170 207 224 170 207 224 170 207 224 170 207 224 170 207 224 170 207 224 170 207 224 170 207 224 170 207 224 170 207 224 170 207 224 170 207 224 170 207 224 170 207 224 170 207 224 170 207 224 170 207 224 170 207 224 170 207 224 170 207 224 170 207 224 170 207 224 170 207 224 170 207 224 170 207 224 170 207 224 170 207 224 170 207 224 170 207 224 170 207 224 170 207 224 170 207 224 170 207 224 170 207 224 170 207 224 170 207 224 170 207 224 170 207 224 170 207 224 170 207 224 170 207 224 170 207 224 170 207 224 170 207 224 170 207 224 170 207 224 170 207 224 170 207 224 170 207 224 170 207 224 170 207 224 170 207 224 170 207 224 170 207 224 170 207 224 170 207 224 170 207 224 170 207 224 170 207 224 170 207 224 170 207 224 170 207 224 170 207 224 170 207 224 170 207 224 170 207 224 170 207 224 170 207 224 170 207 224 170 207 224 170 207 224 170 207 224 170 207 224 170 207 224 170 207 224 170 207 224 170 207 224 170 207 224 170 207 224 170 207 224 170 207 224 170 207 224 170 207 224 170 207 224 170 207 224 170 207 224 170 207 224 170 207 224 170 207 224 170 207 224 170 207 224 170 207 224 170 207 224 170 207 224 170 207 224 170 207 224 170 207 224 170 207 224 170 207 224 170 207 224 170 207 224 170 207 224 170 207 224 170 207 224 170 207 224 170 207 224 170 207 224 170 207 224 170 207 224 170 207 224 170 207 224 170 207 224 170 207 224 170 207 224 170 207 224 170 207 224 170 207 224 170 207 224 170 207 224 170 207 224 170 207 224 170 207 224 170 207 224 170 207 224 170 207 224 170 207 224 170 207 224 170 207 224 170 207 224 170 207 224 170 207 224 170 207 224 170 207 224 170 207 224 170 207 224 170 207 224 170 207 224 170 207 224 170 207 224 170 207 224 170 207 224 170 207 224 170 207 224 170 207 224 170 207 224 170 207 224 170 207 224 170 207 224 170 207 224 170 207 224 170 207 224 170 207 224 170 207 224 170 207 224 170 207 224 170 207 224 170 207 224 170 207 224 170 207 224 170 207 224 170 207 224 170 207 224 170 207 224 170 207 224 170 207 224 170 207 224 170 207 224 170 207 224 170 207 224 170 207 224 170 207 224 170 207 224 170 207 224 170 207 224 170 207 224 170 207 224 170 207 224 170 207 224 170 207 224 170 207 224 170 207 224 170 207 224 170 207 224 170 207 224 170 207 224 170 207 224 170 207 224 170 207 224 170 207 224 170 207 224 170 207 224 170 207 224 170 207 224 170 207 224 170 207 224 170 207 224 170 207 224 170 207 224 170 207 224 