P3
64 48
255
49 55 48 50 48 55 50 50 52 49 55 48 50 48 55 50 50 52 49 55 48 50 48 55 50 50 52 49 55 48 50 48 55 50 50 52 49 55 48 50 48 55 50 50 52 49 55 48 50 48 55 50 50 52 49 55 48 50 48 55 50 50 52 49 55 48 50 48 55 50 50 52 49 55 48 50 48 55 50 50 52 49 55 48 50 48 55 50 50 52 49 55 48 50 48 55 50 50 52 49 55 48 50 48 55 50 50 52 49 55 48 50 48 55 50 50 52 49 55 48 50 48 55 50 50 52 49 55 48 50 48 55 50 50 52 49 55 48 50 48 55 50 50 52 49 55 48 50 48 55 50 50 52 49 55 48 50 48 55 50 50 52 49 55 48 50 48 55 50 50 52 49 55 48 50 48 55 50 50 52 49 55 48 50 48 55 50 50 52 49 55 48 50 48 55 50 50 52 49 55 48 50 48 55 50 50 52 49 55 48 50 48 55 50 50 52 49 55 48 50 48 55 50 50 52 49 55 48 50 48 55 50 50 52 49 55 48 50 48 55 50 50 52 49 55 48 50 48 55 50 50 52 49 55 48 50 48 55 50 50 52 49 55 48 50 48 55 50 50 52 49 55 48 50 48 55 50 50 52 49 55 48 50 48 55 50 50 52 49 55 48 50 48 55 50 50 52 49 55 48 50 48 55 50 50 52 49 55 48 50 48 55 50 50 52 49 55 48 50 48 55 50 50 52 49 55 48 50 48 55 50 50 52 49 55 48 50 48 55 50 50 52 49 55 48 50 48 55 50 50 52 49 55 48 50 48 55 50 50 52 49 55 48 50 48 55 50 50 52 49 55 48 50 48 55 50 50 52 49 55 48 50 48 55 50 50 52 49 55 48 23 232 37 23 232 37 23 232 37 23 232 37 23 232 37 23 232 37 50 48 55 50 50 52 49 55 48 50 48 55 50 50 52 49 55 48 50 48 55 50 50 52 49 55 48 50 48 55 50 50 52 49 55 48 50 48 55 50 50 52 49 55 48 50 48 55 50 50 52 49 55 48 50 48 55 50 50 52 49 55 48 50 48 55 50 50 52 49 55 48 50 48 55 50 50 52 49 55 48 50 48 55 50 50 52 49 55 48 50 48 55 50 50 52 49 55 48 50 48 55 50 50 52 49 55 48 50 48 55 50 50 52 49 55 48 50 48 55 50 50 52 49 55 48 50 48 55 50 50 52 49 55 48 50 48 55 50 50 52 49 55 48 50 48 55 50 50 52 49 55 48 50 48 55 50 50 52 49 55 48 50 48 55 50 50 52 49 55 48 50 48 55 23 232 37 23 232 37 23 232 37 23 232 37 23 232 37 23 232 37 50 50 52 49 55 48 50 48 55 50 50 52 49 55 48 50 48 55 50 50 52 49 55 48 50 48 55 50 50 52 49 55 48 50 48 55 50 50 52 49 55 48 50 48 55 50 50 52 49 55 48 50 48 55 50 50 52 49 55 48 50 48 55 50 50 52 49 55 48 50 48 55 50 50 52 49 55 48 50 48 55 50 50 52 49 55 48 50 48 55 50 50 52 49 55 48 50 48 55 50 50 52 49 55 48 50 48 55 50 50 52 49 55 48 50 48 55 50 50 52 49 55 48 50 48 55 50 50 52 49 55 48 50 48 55 50 50 52 49 55 48 50 48 55 50 50 52 49 55 48 50 48 55 50 50 52 49 55 48 50 48 55 50 50 52 49 55 48 50 48 55 50 50 52 23 232 37 23 232 37 23 232 37 23 232 37 23 232 37 23 232 37 49 55 48 50 48 55 50 50 52 49 55 48 50 48 55 50 50 52 49 55 48 50 48 55 50 50 52 49 55 48 50 48 55 50 50 52 49 55 48 50 48 55 50 50 52 49 55 48 50 48 55 50 50 52 49 55 48 50 48 55 50 50 52 49 55 48 50 48 55 50 50 52 49 55 48 50 48 55 50 50 52 49 55 48 50 48 55 50 50 52 49 55 48 50 48 55 50 50 52 49 55 48 50 48 55 50 50 52 49 55 48 50 48 55 50 50 52 49 55 48 50 48 55 50 50 52 49 55 48 50 48 55 50 50 52 49 55 48 50 48 55 50 50 52 49 55 48 50 48 55 50 50 52 49 55 48 50 48 55 50 50 52 49 55 48 50 48 55 50 50 52 49 55 48 23 232 37 23 232 37 23 232 37 23 232 37 23 232 37 23 232 37 50 48 55 50 50 52 49 55 48 50 48 55 50 50 52 49 55 48 50 48 55 50 50 52 49 55 48 50 48 55 50 50 52 49 55 48 50 48 55 50 50 52 49 55 48 50 48 55 50 50 52 49 55 48 50 48 55 50 50 52 49 55 48 50 48 55 50 50 52 49 55 48 50 48 55 50 50 52 49 55 48 50 48 55 50 50 52 49 55 48 50 48 55 50 50 52 49 55 48 50 48 55 50 50 52 49 55 48 50 48 55 50 50 52 49 55 48 50 48 55 50 50 52 49 55 48 50 48 55 50 50 52 49 55 48 50 48 55 50 50 52 49 55 48 50 48 55 50 50 52 49 55 48 50 48 55 50 50 52 49 55 48 50 48 55 50 50 52 49 55 48 50 48 55 23 232 37 23 232 37 23 232 37 23 232 37 23 232 37 23 232 37 50 50 52 49 55 48 50 48 55 50 50 52 49 55 48 50 48 55 50 50 52 49 55 48 50 48 55 50 50 52 49 55 48 50 48 55 50 50 52 49 55 48 50 48 55 50 50 52 49 55 48 50 48 55 50 50 52 49 55 48 50 48 55 50 50 52 49 55 48 50 48 55 50 50 52 49 55 48 50 48 55 50 50 52 49 55 48 50 48 55 50 50 52 49 55 48 50 48 55 50 50 52 49 55 48 50 48 55 50 50 52 49 55 48 50 48 55 50 50 52 49 55 48 50 48 55 50 50 52 49 55 48 50 48 55 50 50 52 49 55 48 50 48 55 50 50 52 49 55 48 50 48 55 50 50 52 49 55 48 50 48 55 50 50 52 49 55 48 50 48 55 50 50 52 23 232 37 23 232 37 23 232 37 23 232 37 23 232 37 23 232 37 49 55 48 50 48 55 50 50 52 49 55 48 50 48 55 50 50 52 49 55 48 50 48 55 50 50 52 49 55 48 50 48 55 50 50 52 49 55 48 50 48 55 50 50 52 49 55 48 50 48 55 50 50 52 49 55 48 50 48 55 50 50 52 49 55 48 50 48 55 50 50 52 49 55 48 50 48 55 50 50 52 49 55 48 50 48 55 50 50 52 49 55 48 50 48 55 50 50 52 49 55 48 50 48 55 50 50 52 49 55 48 50 48 55 50 50 52 49 55 48 50 48 55 50 50 52 49 55 48 50 48 55 50 50 52 49 55 48 50 48 55 50 50 52 49 55 48 50 48 55 50 50 52 49 55 48 50 48 55 50 50 52 49 55 48 50 48 55 50 50 52 49 55 48 23 232 37 23 232 37 23 232 37 23 232 37 23 232 37 23 232 37 50 48 55 50 50 52 49 55 48 50 48 55 50 50 52 49 55 48 50 48 55 50 50 52 49 55 48 50 48 55 50 50 52 49 55 48 50 48 55 50 50 52 49 55 48 50 48 55 50 50 52 49 55 48 50 48 55 50 50 52 49 55 48 50 48 55 50 50 52 49 55 48 50 48 55 50 50 52 49 55 48 50 48 55 50 50 52 49 55 48 50 48 55 50 50 52 49 55 48 50 48 55 50 50 52 49 55 48 50 48 55 50 50 52 49 55 48 50 48 55 50 50 52 49 55 48 50 48 55 50 50 52 49 55 48 50 48 55 50 50 52 49 55 48 50 48 55 50 50 52 49 55 48 50 48 55 50 50 52 49 55 48 50 48 55 50 50 52 49 55 48 50 48 55 23 232 37 23 232 37 23 232 37 23 232 37 23 232 37 23 232 37 50 50 52 49 55 48 50 48 55 50 50 52 49 55 48 50 48 55 50 50 52 49 55 48 50 48 55 50 50 52 49 55 48 50 48 55 50 50 52 49 55 48 50 48 55 50 50 52 49 55 48 50 48 55 50 50 52 49 55 48 50 48 55 50 50 52 49 55 48 50 48 55 50 50 52 49 55 48 50 48 55 50 50 52 49 55 48 50 48 55 50 50 52 49 55 48 50 48 55 50 50 52 49 55 48 50 48 55 50 50 52 49 55 48 50 48 55 50 50 52 49 55 48 50 48 55 50 50 52 49 55 48 50 48 55 50 50 52 49 55 48 50 48 55 50 50 52 49 55 48 50 48 55 50 50 52 49 55 48 50 48 55 50 50 52 49 55 48 50 48 55 50 50 52 23 232 37 23 232 37 23 232 37 23 232 37 23 232 37 23 232 37 49 55 48 50 48 55 50 50 52 49 55 48 50 48 55 50 50 52 49 55 48 50 48 55 50 50 52 49 55 48 50 48 55 50 50 52 49 55 48 50 48 55 50 50 52 49 55 48 50 48 55 50 50 52 49 55 48 50 48 55 50 50 52 49 55 48 50 48 55 50 50 52 49 55 48 50 48 55 50 50 52 49 55 48 50 48 55 50 50 52 49 55 48 50 48 55 50 50 52 49 55 48 50 48 55 50 50 52 49 55 48 50 48 55 50 50 52 49 55 48 50 48 55 50 50 52 49 55 48 50 48 55 50 50 52 49 55 48 50 48 55 50 50 52 49 55 48 50 48 55 50 50 52 49 55 48 50 48 55 50 50 52 49 55 48 50 48 55 50 50 52 49 55 48 23 232 37 23 232 37 23 232 37 23 232 37 23 232 37 23 232 37 50 48 55 50 50 52 49 55 48 50 48 55 50 50 52 49 55 48 50 48 55 50 50 52 49 55 48 50 48 55 50 50 52 49 55 48 50 48 55 50 50 52 49 55 48 50 48 55 50 50 52 49 55 48 50 48 55 50 50 52 49 55 48 50 48 55 50 50 52 49 55 48 50 48 55 50 50 52 49 55 48 50 48 55 50 50 52 49 55 48 50 48 55 50 50 52 49 55 48 50 48 55 50 50 52 49 55 48 50 48 55 50 50 52 49 55 48 50 48 55 50 50 52 49 55 48 50 48 55 50 50 52 49 55 48 50 48 55 50 50 52 49 55 48 50 48 55 50 50 52 49 55 48 50 48 55 50 50 52 49 55 48 50 48 55 50 50 52 49 55 48 50 48 55 23 232 37 23 232 37 23 232 37 23 232 37 23 232 37 23 232 37 50 50 52 49 55 48 50 48 55 50 50 52 49 55 48 50 48 55 50 50 52 49 55 48 50 48 55 50 50 52 49 55 48 50 48 55 50 50 52 49 55 48 50 48 55 50 50 52 49 55 48 50 48 55 50 50 52 49 55 48 50 48 55 50 50 52 49 55 48 50 48 55 50 50 52 49 55 48 50 48 55 50 50 52 49 55 48 50 48 55 50 50 52 49 55 48 50 48 55 50 50 52 49 55 48 50 48 55 50 50 52 49 55 48 50 48 55 50 50 52 49 55 48 50 48 55 50 50 52 49 55 48 50 48 55 50 50 52 49 55 48 50 48 55 50 50 52 49 55 48 50 48 55 50 50 52 49 55 48 50 48 55 50 50 52 49 55 48 50 48 55 50 50 52 23 232 37 23 232 37 23 232 37 23 232 37 23 232 37 23 232 37 49 55 48 50 48 55 50 50 52 49 55 48 50 48 55 50 50 52 49 55 48 50 48 55 50 50 52 49 55 48 50 48 55 50 50 52 49 55 48 50 48 55 50 50 52 49 55 48 50 48 55 50 50 52 49 55 48 50 48 55 50 50 52 49 55 48 50 48 55 50 50 52 49 55 48 50 48 55 50 50 52 49 55 48 50 48 55 50 50 52 49 55 48 50 48 55 50 50 52 49 55 48 50 48 55 50 50 52 49 55 48 50 48 55 50 50 52 49 55 48 50 48 55 50 50 52 49 55 48 50 48 55 50 50 52 49 55 48 50 48 55 50 50 52 49 55 48 50 48 55 50 50 52 49 55 48 50 48 55 50 50 52 49 55 48 50 48 55 50 50 52 49 55 48 50 48 55 50 50 52 49 55 48 50 48 55 50 50 52 49 55 48 50 48 55 50 50 52 49 55 48 50 48 55 50 50 52 49 55 48 50 48 55 50 50 52 49 55 48 50 48 55 50 50 52 49 55 48 50 48 55 50 50 52 49 55 48 50 48 55 50 50 52 49 55 48 50 48 55 50 50 52 49 55 48 50 48 55 50 50 52 49 55 48 50 48 55 50 50 52 49 55 48 50 48 55 50 50 52 49 55 48 50 48 55 50 50 52 49 55 48 50 48 55 50 50 52 49 55 48 50 48 55 50 50 52 49 55 48 50 48 55 50 50 52 49 55 48 50 48 55 50 50 52 49 55 48 50 48 55 50 50 52 49 55 48 50 48 55 50 50 52 49 55 48 50 48 55 50 50 52 49 55 48 50 48 55 50 50 52 49 55 48 50 48 55 50 50 52 49 55 48 50 48 55 50 50 52 49 55 48 50 48 55 50 50 52 49 55 48 50 48 55 50 50 52 49 55 48 50 48 55 50 50 52 49 55 48 50 48 55 50 50 52 49 55 48 50 48 55 50 50 52 49 55 48 50 48 55 50 50 52 49 55 48 50 48 55 50 50 52 49 55 48 50 48 55 50 50 52 49 55 48 50 48 55 50 50 52 49 55 48 50 48 55 50 50 52 49 55 48 50 48 55 50 50 52 49 55 48 50 48 55 50 50 52 49 55 48 50 48 55 50 50 52 49 55 48 50 48 55 50 50 52 49 55 48 50 48 55 50 50 52 49 55 48 50 48 55 50 50 52 49 55 48 50 48 55 50 50 52 49 55 48 50 48 55 50 50 52 49 55 48 50 48 55 50 50 52 49 55 48 50 48 55 50 50 52 49 55 48 50 48 55 50 50 52 49 55 48 50 48 55 50 50 52 49 55 48 50 48 55 50 50 52 49 55 48 50 48 55 50 50 52 49 55 48 50 48 55 50 50 52 49 55 48 50 48 55 50 50 52 49 55 48 50 48 55 50 50 52 49 55 48 50 48 55 50 50 52 49 55 48 50 48 55 50 50 52 49 55 48 50 48 55 50 50 52 49 55 48 50 48 55 50 50 52 49 55 48 50 48 55 50 50 52 49 55 48 50 48 55 50 50 52 49 55 48 50 48 55 50 50 52 49 55 48 50 48 55 50 50 52 49 55 48 50 48 55 50 50 52 49 55 48 50 48 55 50 50 52 49 55 48 50 48 55 50 50 52 49 55 48 50 48 55 50 50 52 49 55 48 50 48 55 50 50 52 49 55 48 50 48 55 50 50 52 49 55 48 50 48 55 50 50 52 49 55 48 50 48 55 50 50 52 49 55 48 50 48 55 50 50 52 49 55 48 50 48 55 50 50 52 49 55 48 50 48 55 50 50 52 49 55 48 50 48 55 50 50 52 49 55 48 50 48 55 50 50 52 49 55 48 50 48 55 50 50 52 49 55 48 50 48 55 50 50 52 49 55 48 50 48 55 50 50 52 49 55 48 50 48 55 50 50 52 49 55 48 50 48 55 50 50 52 49 55 48 50 48 55 50 50 52 49 55 48 50 48 55 50 50 52 49 55 48 50 48 55 50 50 52 49 55 48 50 48 55 50 50 52 49 55 48 50 48 55 50 50 52 49 55 48 50 48 55 50 50 52 49 55 48 50 48 55 50 50 52 49 55 48 50 48 55 50 50 52 49 55 48 50 48 55 50 50 52 49 55 48 50 48 55 50 50 52 49 55 48 50 48 55 50 50 52 49 55 48 50 48 55 50 50 52 49 55 48 50 48 55 50 50 52 49 55 48 50 48 55 50 50 52 49 55 48 50 48 55 50 50 52 49 55 48 50 48 55 50 50 52 49 55 48 50 48 55 50 50 52 49 55 48 50 48 55 50 50 52 49 55 48 50 48 55 50 50 52 49 55 48 50 48 55 50 50 52 49 55 48 50 48 55 50 50 52 49 55 48 50 48 55 0 0 0 0 0 0 0 0 0 0 0 0 0 0 0 0 0 0 50 50 52 49 55 48 50 48 55 50 50 52 49 55 48 50 48 55 50 50 52 49 55 48 50 48 55 50 50 52 49 55 48 50 48 55 50 50 52 49 55 48 50 48 55 50 50 52 49 55 48 50 48 55 50 50 52 49 55 48 50 48 55 50 50 52 49 55 48 50 48 55 50 50 52 49 55 48 50 48 55 50 50 52 49 55 48 50 48 55 50 50 52 49 55 48 50 48 55 50 50 52 49 55 48 50 48 55 50 50 52 49 55 48 50 48 55 50 50 52 49 55 48 50 48 55 50 50 52 49 55 48 50 48 55 50 50 52 49 55 48 50 48 55 50 50 52 49 55 48 50 48 55 50 50 52 49 55 48 50 48 55 50 50 52 49 55 48 50 48 55 50 50 52 0 0 0 0 0 0 0 0 0 0 0 0 0 0 0 0 0 0 49 55 48 50 48 55 50 50 52 49 55 48 50 48 55 50 50 52 49 55 48 50 48 55 50 50 52 49 55 48 50 48 55 50 50 52 49 55 48 50 48 55 50 50 52 49 55 48 50 48 55 50 50 52 49 55 48 50 48 55 50 50 52 49 55 48 50 48 55 50 50 52 49 55 48 50 48 55 50 50 52 49 55 48 50 48 55 50 50 52 49 55 48 50 48 55 50 50 52 49 55 48 50 48 55 50 50 52 49 55 48 50 48 55 50 50 52 49 55 48 50 48 55 50 50 52 49 55 48 50 48 55 50 50 52 49 55 48 50 48 55 50 50 52 49 55 48 50 48 55 50 50 52 49 55 48 50 48 55 50 50 52 49 55 48 50 48 55 50 50 52 49 55 48 0 0 0 0 0 0 0 0 0 0 0 0 0 0 0 0 0 0 50 48 55 50 50 52 49 55 48 50 48 55 50 50 52 49 55 48 50 48 55 50 50 52 49 55 48 50 48 55 50 50 52 49 55 48 50 48 55 50 50 52 49 55 48 50 48 55 50 50 52 49 55 48 50 48 55 50 50 52 49 55 48 50 48 55 50 50 52 49 55 48 50 48 55 50 50 52 49 55 48 50 48 55 50 50 52 49 55 48 50 48 55 50 50 52 49 55 48 50 48 55 50 50 52 49 55 48 50 48 55 50 50 52 49 55 48 50 48 55 50 50 52 49 55 48 50 48 55 50 50 52 49 55 48 50 48 55 50 50 52 49 55 48 50 48 55 50 50 52 49 55 48 50 48 55 50 50 52 49 55 48 50 48 55 50 50 52 49 55 48 50 48 55 0 0 0 0 0 0 0 0 0 0 0 0 0 0 0 0 0 0 50 50 52 49 55 48 50 48 55 50 50 52 49 55 48 50 48 55 50 50 52 49 55 48 50 48 55 50 50 52 49 55 48 50 48 55 50 50 52 49 55 48 50 48 55 50 50 52 49 55 48 50 48 55 50 50 52 49 55 48 50 48 55 50 50 52 49 55 48 50 48 55 50 50 52 49 55 48 50 48 55 50 50 52 49 55 48 50 48 55 50 50 52 49 55 48 50 48 55 50 50 52 49 55 48 50 48 55 50 50 52 49 55 48 50 48 55 50 50 52 49 55 48 50 48 55 50 50 52 49 55 48 50 48 55 50 50 52 49 55 48 50 48 55 50 50 52 49 55 48 50 48 55 50 50 52 49 55 48 50 48 55 50 50 52 49 55 48 50 48 55 50 50 52 0 0 0 0 0 0 0 0 0 0 0 0 0 0 0 0 0 0 49 55 48 50 48 55 50 50 52 49 55 48 50 48 55 50 50 52 49 55 48 50 48 55 50 50 52 49 55 48 50 48 55 50 50 52 49 55 48 50 48 55 50 50 52 49 55 48 50 48 55 50 50 52 49 55 48 50 48 55 50 50 52 49 55 48 50 48 55 50 50 52 49 55 48 50 48 55 50 50 52 49 55 48 50 48 55 50 50 52 49 55 48 50 48 55 50 50 52 49 55 48 50 48 55 50 50 52 49 55 48 50 48 55 50 50 52 49 55 48 50 48 55 50 50 52 49 55 48 50 48 55 50 50 52 49 55 48 50 48 55 50 50 52 49 55 48 50 48 55 50 50 52 49 55 48 50 48 55 50 50 52 49 55 48 50 48 55 50 50 52 49 55 48 0 0 0 0 0 0 0 0 0 0 0 0 0 0 0 0 0 0 50 48 55 50 50 52 49 55 48 50 48 55 50 50 52 49 55 48 50 48 55 50 50 52 49 55 48 50 48 55 50 50 52 49 55 48 50 48 55 50 50 52 49 55 48 50 48 55 50 50 52 49 55 48 50 48 55 50 50 52 49 55 48 50 48 55 50 50 52 49 55 48 50 48 55 50 50 52 49 55 48 50 48 55 50 50 52 49 55 48 50 48 55 50 50 52 49 55 48 50 48 55 50 50 52 49 55 48 50 48 55 50 50 52 49 55 48 50 48 55 50 50 52 49 55 48 50 48 55 50 50 52 49 55 48 50 48 55 50 50 52 49 55 48 50 48 55 50 50 52 49 55 48 50 48 55 50 50 52 49 55 48 50 48 55 50 50 52 49 55 48 50 48 55 0 0 0 0 0 0 0 0 0 0 0 0 0 0 0 0 0 0 50 50 52 49 55 48 50 48 55 50 50 52 49 55 48 50 48 55 50 50 52 49 55 48 50 48 55 50 50 52 49 55 48 50 48 55 50 50 52 49 55 48 50 48 55 50 50 52 49 55 48 50 48 55 50 50 52 49 55 48 50 48 55 50 50 52 49 55 48 50 48 55 50 50 52 49 55 48 50 48 55 50 50 52 49 55 48 50 48 55 50 50 52 49 55 48 50 48 55 50 50 52 49 55 48 50 48 55 50 50 52 49 55 48 50 48 55 50 50 52 49 55 48 50 48 55 50 50 52 49 55 48 50 48 55 50 50 52 49 55 48 50 48 55 50 50 52 49 55 48 50 48 55 50 50 52 49 55 48 50 48 55 50 50 52 49 55 48 50 48 55 50 50 52 0 0 0 0 0 0 0 0 0 0 0 0 0 0 0 0 0 0 49 55 48 50 48 55 50 50 52 49 55 48 50 48 55 50 50 52 49 55 48 50 48 55 50 50 52 49 55 48 50 48 55 50 50 52 49 55 48 50 48 55 50 50 52 49 55 48 50 48 55 50 50 52 49 55 48 50 48 55 50 50 52 49 55 48 50 48 55 50 50 52 49 55 48 50 48 55 50 50 52 49 55 48 50 48 55 50 50 52 49 55 48 50 48 55 50 50 52 49 55 48 50 48 55 50 50 52 49 55 48 50 48 55 50 50 52 49 55 48 50 48 55 50 50 52 49 55 48 50 48 55 50 50 52 49 55 48 50 48 55 50 50 52 49 55 48 50 48 55 50 50 52 49 55 48 50 48 55 50 50 52 49 55 48 50 48 55 50 50 52 49 55 48 0 0 0 0 0 0 0 0 0 0 0 0 0 0 0 0 0 0 50 48 55 50 50 52 49 55 48 50 48 55 50 50 52 49 55 48 50 48 55 50 50 52 49 55 48 50 48 55 50 50 52 49 55 48 50 48 55 50 50 52 49 55 48 50 48 55 50 50 52 49 55 48 50 48 55 50 50 52 49 55 48 50 48 55 50 50 52 49 55 48 50 48 55 50 50 52 49 55 48 50 48 55 50 50 52 49 55 48 50 48 55 50 50 52 49 55 48 50 48 55 50 50 52 49 55 48 50 48 55 50 50 52 49 55 48 50 48 55 50 50 52 49 55 48 50 48 55 50 50 52 49 55 48 50 48 55 50 50 52 49 55 48 50 48 55 50 50 52 49 55 48 50 48 55 50 50 52 49 55 48 50 48 55 50 50 52 49 55 48 50 48 55 0 0 0 0 0 0 0 0 0 0 0 0 0 0 0 0 0 0 50 50 52 49 55 48 50 48 55 50 50 52 49 55 48 50 48 55 50 50 52 49 55 48 50 48 55 50 50 52 49 55 48 50 48 55 50 50 52 49 55 48 50 48 55 50 50 52 49 55 48 50 48 55 50 50 52 49 55 48 50 48 55 50 50 52 49 55 48 50 48 55 50 50 52 49 55 48 50 48 55 50 50 52 49 55 48 50 48 55 50 50 52 49 55 48 50 48 55 50 50 52 49 55 48 50 48 55 50 50 52 49 55 48 50 48 55 50 50 52 49 55 48 50 48 55 50 50 52 49 55 48 50 48 55 50 50 52 49 55 48 50 48 55 50 50 52 49 55 48 50 48 55 50 50 52 49 55 48 50 48 55 50 50 52 49 55 48 50 48 55 50 50 52 0 0 0 0 0 0 0 0 0 0 0 0 0 0 0 0 0 0 49 55 48 50 48 55 50 50 52 49 55 48 50 48 55 50 50 52 49 55 48 50 48 55 50 50 52 49 55 48 50 48 55 50 50 52 49 55 48 50 48 55 50 50 52 49 55 48 50 48 55 50 50 52 49 55 48 50 48 55 50 50 52 49 55 48 50 48 55 50 50 52 49 55 48 50 48 55 50 50 52 49 55 48 50 48 55 50 50 52 49 55 48 50 48 55 50 50 52 49 55 48 50 48 55 50 50 52 49 55 48 50 48 55 50 50 52 49 55 48 50 48 55 50 50 52 49 55 48 50 48 55 50 50 52 49 55 48 50 48 55 50 50 52 49 55 48 50 48 55 50 50 52 49 55 48 50 48 55 50 50 52 49 55 48 50 48 55 50 50 52 49 55 48 0 0 0 0 0 0 0 0 0 0 0 0 0 0 0 0 0 0 50 48 55 50 50 52 49 55 48 50 48 55 50 50 52 49 55 48 50 48 55 50 50 52 49 55 48 50 48 55 50 50 52 49 55 48 50 48 55 50 50 52 49 55 48 50 48 55 50 50 52 49 55 48 50 48 55 50 50 52 49 55 48 50 48 55 50 50 52 49 55 48 50 48 55 50 50 52 49 55 48 50 48 55 50 50 52 49 55 48 50 48 55 50 50 52 49 55 48 50 48 55 50 50 52 49 55 48 50 48 55 50 50 52 48 48 48 49 55 48 50 48 55 50 50 52 49 55 48 50 48 55 50 50 52 49 55 48 50 48 55 50 50 52 49 55 48 50 48 55 50 50 52 49 55 48 50 48 55 50 50 52 49 55 48 50 48 55 50 50 52 49 55 48 0 0 0 0 0 0 0 0 0 0 0 0 0 0 0 0 0 0 50 48 55 50 50 52 49 55 48 50 48 55 50 50 52 49 55 48 50 48 55 50 50 52 49 55 48 50 48 55 50 50 52 49 55 48 50 48 55 50 50 52 49 55 48 50 48 55 50 50 52 49 55 48 50 48 55 50 50 52 49 55 48 50 48 55 50 50 52 49 55 48 50 48 55 50 50 52 49 55 48 50 48 55 50 50 52 49 55 48 50 48 55 50 50 52 49 55 48 50 48 55 50 50 52 49 55 48 50 48 55 50 50 52 49 55 48 50 48 55 50 50 52 49 55 48 50 48 55 50 50 52 49 55 48 50 48 55 50 50 52 49 55 48 50 48 55 50 50 52 49 55 48 50 48 55 50 50 52 49 55 48 50 48 55 50 50 52 49 55 48 50 48 55 0 0 0 0 0 0 0 0 0 0 0 0 0 0 0 0 0 0 50 50 52 49 55 48 50 48 55 50 50 52 49 55 48 50 48 55 50 50 52 49 55 48 50 48 55 50 50 52 49 55 48 50 48 55 50 50 52 49 55 48 50 48 55 50 50 52 49 55 48 50 48 55 50 50 52 49 55 48 50 48 55 50 50 52 49 55 48 50 48 55 50 50 52 49 55 48 50 48 55 50 50 52 49 55 48 50 48 55 50 50 52 49 55 48 50 48 55 50 50 52 49 55 48 50 48 55 50 50 52 49 55 48 50 48 55 50 50 52 49 55 48 50 48 55 50 50 52 49 55 48 50 48 55 50 50 52 49 55 48 50 48 55 50 50 52 49 55 48 50 48 55 50 50 52 49 55 48 50 48 55 50 50 52 49 55 48 50 48 55 50 50 52 0 0 0 0 0 0 0 0 0 0 0 0 0 0 0 0 0 0 49 55 48 50 48 55 50 50 52 49 55 48 50 48 55 50 50 52 49 55 48 50 48 55 50 50 52 49 55 48 50 48 55 50 50 52 49 55 48 50 48 55 50 50 52 49 55 48 50 48 55 50 50 52 49 55 48 50 48 55 50 50 52 49 55 48 50 48 55 50 50 52 49 55 48 50 48 55 50 50 52 49 55 48 50 48 55 50 50 52 49 55 48 50 48 55 50 50 52 49 55 48 50 48 55 50 50 52 49 55 48 50 48 55 50 50 52 49 55 48 50 48 55 50 50 52 49 55 48 50 48 55 50 50 52 49 55 48 50 48 55 50 50 52 49 55 48 50 48 55 50 50 52 49 55 48 50 48 55 50 50 52 49 55 48 50 48 55 50 50 52 49 55 48 0 0 0 0 0 0 0 0 0 0 0 0 0 0 0 0 0 0 50 48 55 50 50 52 49 55 48 50 48 55 50 50 52 49 55 48 50 48 55 50 50 52 49 55 48 50 48 55 50 50 52 49 55 48 50 48 55 50 50 52 49 55 48 50 48 55 50 50 52 49 55 48 50 48 55 50 50 52 49 55 48 50 48 55 50 50 52 49 55 48 50 48 55 50 50 52 49 55 48 50 48 55 50 50 52 49 55 48 50 48 55 50 50 52 49 55 48 50 48 55 50 50 52 49 55 48 50 48 55 50 50 52 49 55 48 50 48 55 50 50 52 49 55 48 50 48 55 50 50 52 49 55 48 50 48 55 50 50 52 49 55 48 50 48 55 50 50 52 49 55 48 50 48 55 50 50 52 49 55 48 50 48 55 50 50 52 49 55 48 50 48 55 0 0 0 0 0 0 0 0 0 0 0 0 0 0 0 0 0 0 50 50 52 49 55 48 50 48 55 50 50 52 49 55 48 50 48 55 50 50 52 49 55 48 50 48 55 50 50 52 49 55 48 50 48 55 50 50 52 49 55 48 50 48 55 50 50 52 49 55 48 50 48 55 50 50 52 49 55 48 50 48 55 50 50 52 49 55 48 50 48 55 50 50 52 49 55 48 50 48 55 50 50 52 49 55 48 50 48 55 50 50 52 49 55 48 50 48 55 50 50 52 49 55 48 50 48 55 50 50 52 49 55 48 50 48 55 50 50 52 49 55 48 50 48 55 50 50 52 49 55 48 50 48 55 50 50 52 49 55 48 50 48 55 50 50 52 49 55 48 50 48 55 50 50 52 49 55 48 50 48 55 50 50 52 49 55 48 50 48 55 50 50 52 0 0 0 0 0 0 0 0 0 0 0 0 0 0 0 0 0 0 49 55 48 50 48 55 50 50 52 49 55 48 50 48 55 50 50 52 49 55 48 50 48 55 50 50 52 49 55 48 50 48 55 50 50 52 49 55 48 50 48 55 50 50 52 49 55 48 50 48 55 50 50 52 49 55 48 50 48 55 50 50 52 49 55 48 50 48 55 50 50 52 49 55 48 50 48 55 50 50 52 49 55 48 50 48 55 50 50 52 49 55 48 50 48 55 50 50 52 49 55 48 50 48 55 50 50 52 49 55 48 50 48 55 50 50 52 49 55 48 50 48 55 50 50 52 49 55 48 50 48 55 50 50 52 49 55 48 50 48 55 50 50 52 49 55 48 50 48 55 50 50 52 49 55 48 50 48 55 50 50 52 49 55 48 50 48 55 50 50 52 49 55 48 0 0 0 0 0 0 0 0 0 0 0 0 0 0 0 0 0 0 50 48 55 50 50 52 49 55 48 50 48 55 50 50 52 49 55 48 50 48 55 50 50 52 49 55 48 50 48 55 50 50 52 49 55 48 50 48 55 50 50 52 49 55 48 50 48 55 50 50 52 49 55 48 50 48 55 50 50 52 49 55 48 50 48 55 50 50 52 49 55 48 50 48 55 50 50 52 49 55 48 50 48 55 50 50 52 49 55 48 50 48 55 50 50 52 49 55 48 50 48 55 50 50 52 49 55 48 50 48 55 50 50 52 49 55 48 50 48 55 50 50 52 49 55 48 50 48 55 50 50 52 49 55 48 50 48 55 50 50 52 49 55 48 50 48 55 50 50 52 49 55 48 50 48 55 50 50 52 49 55 48 50 48 55 50 50 52 49 55 48 50 48 55 0 0 0 0 0 0 0 0 0 0 0 0 0 0 0 0 0 0 50 50 52 49 55 48 50 48 55 50 50 52 49 55 48 50 48 55 50 50 52 49 55 48 50 48 55 50 50 52 49 55 48 50 48 55 50 50 52 49 55 48 50 48 55 50 50 52 49 55 48 50 48 55 50 50 52 49 55 48 50 48 55 50 50 52 49 55 48 50 48 55 50 50 52 49 55 48 50 48 55 50 50 52 49 55 48 50 48 55 50 50 52 49 55 48 50 48 55 50 50 52 49 55 48 50 48 55 50 50 52 49 55 48 50 48 55 50 50 52 49 55 48 50 48 55 50 50 52 49 55 48 50 48 55 50 50 52 49 55 48 50 48 55 50 50 52 49 55 48 50 48 55 50 50 52 49 55 48 50 48 55 50 50 52 49 55 48 50 48 55 50 50 52 0 0 0 0 0 0 0 0 0 0 0 0 0 0 0 0 0 0 49 55 48 50 48 55 50 50 52 49 55 48 50 48 55 50 50 52 49 55 48 50 48 55 50 50 52 49 55 48 50 48 55 50 50 52 49 55 48 50 48 55 50 50 52 49 55 48 50 48 55 50 50 52 49 55 48 50 48 55 50 50 52 49 55 48 50 48 55 50 50 52 49 55 48 50 48 55 50 50 52 49 55 48 50 48 55 50 50 52 49 55 48 50 48 55 50 50 52 49 55 48 50 48 55 50 50 52 49 55 48 50 48 55 50 50 52 49 55 48 50 48 55 50 50 52 49 55 48 50 48 55 50 50 52 49 55 48 50 48 55 50 50 52 49 55 48 50 48 55 50 50 52 49 55 48 50 48 55 50 50 52 49 55 48 50 48 55 50 50 52 49 55 48 0 0 0 0 0 0 0 0 0 0 0 0 0 0 0 0 0 0 50 48 55 50 50 52 49 55 48 50 48 55 50 50 52 49 55 48 50 48 55 50 50 52 49 55 48 50 48 55 50 50 52 49 55 48 50 48 55 50 50 52 49 55 48 50 48 55 50 50 52 49 55 48 50 48 55 50 50 52 49 55 48 50 48 55 50 50 52 49 55 48 50 48 55 50 50 52 49 55 48 50 48 55 50 50 52 49 55 48 50 48 55 50 50 52 49 55 48 50 48 55 50 50 52 49 55 48 50 48 55 50 50 52 49 55 48 50 48 55 50 50 52 49 55 48 50 48 55 50 50 52 49 55 48 50 48 55 50 50 52 49 55 48 50 48 55 50 50 52 49 55 48 50 48 55 50 50 52 49 55 48 50 48 55 50 50 52 49 55 48 50 48 55 0 0 0 0 0 0 0 0 0 0 0 0 0 0 0 0 0 0 50 50 52 49 55 48 50 48 55 50 50 52 49 55 48 50 48 55 50 50 52 49 55 48 50 48 55 50 50 52 49 55 48 50 48 55 50 50 52 49 55 48 50 48 55 50 50 52 49 55 48 50 48 55 50 50 52 49 55 48 50 48 55 50 50 52 49 55 48 50 48 55 50 50 52 49 55 48 50 48 55 50 50 52 49 55 48 50 48 55 50 50 52 49 55 48 50 48 55 50 50 52 49 55 48 50 48 55 50 50 52 49 55 48 50 48 55 50 50 52 49 55 48 50 48 55 50 50 52 49 55 48 50 48 55 50 50 52 49 55 48 50 48 55 50 50 52 49 55 48 50 48 55 50 50 52 49 55 48 50 48 55 50 50 52 49 55 48 50 48 55 50 50 52 0 0 0 0 0 0 0 0 0 0 0 0 0 0 0 0 0 0 49 55 48 50 48 55 50 50 52 49 55 48 50 48 55 50 50 52 49 55 48 50 48 55 50 50 52 49 55 48 50 48 55 50 50 52 49 55 48 50 48 55 50 50 52 49 55 48 50 48 55 50 50 52 49 55 48 50 48 55 50 50 52 49 55 48 50 48 55 50 50 52 49 55 48 50 48 55 50 50 52 49 55 48 50 48 55 50 50 52 49 55 48 50 48 55 50 50 52 49 55 48 50 48 55 50 50 52 49 55 48 50 48 55 50 50 52 49 55 48 50 48 55 50 50 52 49 55 48 50 48 55 50 50 52 49 55 48 50 48 55 50 50 52 49 55 48 50 48 55 50 50 52 49 55 48 50 48 55 50 50 52 49 55 48 50 48 55 50 50 52 49 55 48 0 0 0 0 0 0 0 0 0 0 0 0 0 0 0 0 0 0 50 48 55 50 50 52 49 55 48 50 48 55 50 50 52 49 55 48 50 48 55 50 50 52 49 55 48 50 48 55 50 50 52 49 55 48 50 48 55 50 50 52 49 55 48 50 48 55 50 50 52 49 55 48 50 48 55 50 50 52 49 55 48 50 48 55 50 50 52 49 55 48 50 48 55 50 50 52 49 55 48 50 48 55 50 50 52 49 55 48 50 48 55 50 50 52 49 55 48 50 48 55 50 50 52 49 55 48 50 48 55 50 50 52 49 55 48 50 48 55 50 50 52 49 55 48 50 48 55 50 50 52 49 55 48 50 48 55 50 50 52 49 55 48 50 48 55 50 50 52 49 55 48 50 48 55 50 50 52 49 55 48 50 48 55 50 50 52 49 55 48 50 48 55 0 0 0 0 0 0 0 0 0 0 0 0 0 0 0 0 0 0 50 50 52 49 55 48 50 48 55 50 50 52 49 55 48 50 48 55 50 50 52 49 55 48 50 48 55 50 50 52 49 55 48 50 48 55 50 50 52 49 55 48 50 48 55 50 50 52 49 55 48 50 48 55 50 50 52 49 55 48 50 48 55 50 50 52 49 55 48 50 48 55 50 50 52 49 55 48 50 48 55 50 50 52 49 55 48 50 48 55 50 50 52 49 55 48 50 48 55 50 50 52 49 55 48 50 48 55 50 50 52 49 55 48 50 48 55 50 50 52 49 55 48 50 48 55 50 50 52 49 55 48 50 48 55 50 50 52 49 55 48 50 48 55 50 50 52 49 55 48 50 48 55 50 50 52 49 55 48 50 48 55 50 50 52 49 55 48 50 48 55 50 50 52 0 0 0 0 0 0 0 0 0 0 0 0 0 0 0 0 0 0 49 55 48 50 48 55 50 50 52 49 55 48 50 48 55 50 50 52 49 55 48 50 48 55 50 50 52 49 55 48 50 48 55 50 50 52 49 55 48 50 48 55 50 50 52 49 55 48 50 48 55 50 50 52 49 55 48 50 48 55 50 50 52 49 55 48 50 48 55 50 50 52 49 55 48 50 48 55 50 50 52 49 55 48 50 48 55 50 50 52 49 55 48 50 48 55 50 50 52 49 55 48 50 48 55 50 50 52 49 55 48 50 48 55 50 50 52 49 55 48 50 48 55 50 50 52 49 55 48 50 48 55 50 50 52 49 55 48 50 48 55 50 50 52 49 55 48 50 48 55 50 50 52 49 55 48 50 48 55 50 50 52 49 55 48 50 48 55 50 50 52 49 55 48 0 0 0 0 0 0 0 0 0 0 0 0 0 0 0 0 0 0 50 48 55 50 50 52 49 55 48 50 48 55 50 50 52 49 55 48 50 48 55 50 50 52 49 55 48 50 48 55 50 50 52 49 55 48 50 48 55 50 50 52 49 55 48 50 48 55 50 50 52 49 55 48 50 48 55 50 50 52 49 55 48 50 48 55 50 50 52 49 55 48 50 48 55 50 50 52 49 55 48 50 48 55 50 50 52 49 55 48 50 48 55 50 50 52 49 55 48 50 48 55 50 50 52 49 55 48 50 48 55 50 50 52 49 55 48 50 48 55 50 50 52 49 55 48 50 48 55 50 50 52 49 55 48 50 48 55 50 50 52 49 55 48 50 48 55 50 50 52 49 55 48 50 48 55 50 50 52 49 55 48 50 48 55 50 50 52 49 55 48 50 48 55 0 0 0 0 0 0 0 0 0 0 0 0 0 0 0 0 0 0 50 50 52 49 55 48 50 48 55 50 50 52 49 55 48 50 48 55 50 50 52 49 55 48 50 48 55 50 50 52 49 55 48 50 48 55 50 50 52 49 55 48 50 48 55 50 50 52 49 55 48 50 48 55 50 50 52 49 55 48 50 48 55 50 50 52 49 55 48 50 48 55 50 50 52 49 55 48 50 48 55 50 50 52 49 55 48 50 48 55 50 50 52 49 55 48 50 48 55 50 50 52 49 55 48 50 48 55 50 50 52 49 55 48 50 48 55 50 50 52 49 55 48 50 48 55 50 50 52 49 55 48 50 48 55 50 50 52 49 55 48 50 48 55 50 50 52 49 55 48 50 48 55 50 50 52 49 55 48 50 48 55 50 50 52 49 55 48 50 48 55 50 50 52 49 55 48 50 48 55 50 50 52 49 55 48 50 48 55 50 50 52 49 55 48 50 48 55 50 50 52 49 55 48 50 48 55 50 50 52 49 55 48 50 48 55 50 50 52 49 55 48 50 48 55 50 50 52 49 55 48 50 48 55 50 50 52 49 55 48 50 48 55 50 50 52 49 55 48 50 48 55 